<?xml version="1.0" encoding="UTF-8" standalone="no"?>
<!-- Created with Inkscape (http://www.inkscape.org/) -->

<svg
   width="250"
   height="80"
   viewBox="0 0 109.67178 35.094968"
   version="1.1"
   id="svg5"
   xml:space="preserve"
   sodipodi:docname="logo.svg"
   inkscape:version="1.3.1 (9b9bdc1480, 2023-11-25, custom)"
   xmlns:inkscape="http://www.inkscape.org/namespaces/inkscape"
   xmlns:sodipodi="http://sodipodi.sourceforge.net/DTD/sodipodi-0.dtd"
   xmlns="http://www.w3.org/2000/svg"
   xmlns:svg="http://www.w3.org/2000/svg"><sodipodi:namedview
     id="namedview1"
     pagecolor="#505050"
     bordercolor="#ffffff"
     borderopacity="1"
     inkscape:showpageshadow="0"
     inkscape:pageopacity="0"
     inkscape:pagecheckerboard="1"
     inkscape:deskcolor="#d1d1d1"
     showgrid="false"
     inkscape:zoom="3.3992242"
     inkscape:cx="157.24176"
     inkscape:cy="23.093505"
     inkscape:window-width="2560"
     inkscape:window-height="1403"
     inkscape:window-x="0"
     inkscape:window-y="0"
     inkscape:window-maximized="1"
     inkscape:current-layer="svg5" /><defs
     id="defs2"><rect
       x="142.40157"
       y="139.97263"
       width="130.91628"
       height="135.09853"
       id="rect42303" /><clipPath
       clipPathUnits="userSpaceOnUse"
       id="clipPath65681"><g
         id="use65683"
         style="display:inline" /></clipPath><clipPath
       clipPathUnits="userSpaceOnUse"
       id="clipPath66439"><g
         id="use66441"
         style="display:inline" /></clipPath></defs><g
     id="layer4"
     style="display:inline;opacity:1;fill:none;fill-opacity:1;stroke:#4d8dc9;stroke-opacity:1"
     transform="matrix(0.49120343,0,0,0.49120343,4.7420936,-1.0395584)"><path
       style="display:inline;opacity:1;fill:none;fill-opacity:1;stroke:#4d8dc9;stroke-width:2.5;stroke-linecap:round;stroke-linejoin:round;stroke-dasharray:none;stroke-opacity:1"
       d="m 67.411398,35.159336 5.295401,14.109969 5.554154,-14.20658"
       id="path56782" /><ellipse
       style="opacity:1;fill:none;fill-opacity:1;stroke:#4d8dc9;stroke-width:2.5;stroke-linecap:round;stroke-linejoin:round;stroke-dasharray:none;stroke-opacity:1"
       id="path57576"
       cx="84.188675"
       cy="44.528042"
       rx="4.8082633"
       ry="4.6845236" /><path
       style="opacity:1;fill:none;fill-opacity:1;stroke:#4d8dc9;stroke-width:2.5;stroke-linecap:round;stroke-linejoin:round;stroke-dasharray:none;stroke-opacity:1"
       d="m 88.955473,44.842019 v 4.35832"
       id="path59032" /><path
       style="opacity:1;fill:none;fill-opacity:1;stroke:#4d8dc9;stroke-width:2.5;stroke-linecap:round;stroke-linejoin:round;stroke-dasharray:none;stroke-opacity:1"
       d="M 92.726854,33.951343 V 49.27779"
       id="path59034" /><path
       style="opacity:1;fill:none;fill-opacity:1;stroke:#4d8dc9;stroke-width:2.5;stroke-linecap:round;stroke-linejoin:round;stroke-dasharray:none;stroke-opacity:1"
       d="M 96.51459,39.824997 V 49.27779"
       id="path59036" /><path
       style="opacity:1;fill:none;fill-opacity:1;stroke:#4d8dc9;stroke-width:2.5;stroke-linecap:round;stroke-linejoin:round;stroke-dasharray:none;stroke-opacity:1"
       d="m 96.51459,35.109135 v -0.01643"
       id="path59038" /><ellipse
       style="opacity:1;fill:none;fill-opacity:1;stroke:#4d8dc9;stroke-width:2.5;stroke-linecap:round;stroke-linejoin:round;stroke-dasharray:none;stroke-opacity:1"
       id="ellipse59040"
       cx="105.02556"
       cy="44.463943"
       rx="4.8082633"
       ry="4.8467569" /><path
       style="opacity:1;fill:none;fill-opacity:1;stroke:#4d8dc9;stroke-width:2.5;stroke-linecap:round;stroke-linejoin:round;stroke-dasharray:none;stroke-opacity:1"
       d="m 109.81259,33.916704 v 9.452793"
       id="path59042" /><path
       style="opacity:1;fill:none;fill-opacity:1;stroke:#4d8dc9;stroke-width:2.5;stroke-linecap:round;stroke-linejoin:round;stroke-dasharray:none;stroke-opacity:1"
       d="M 128.1898,33.951343 V 49.27779"
       id="path59044" /><path
       style="opacity:1;fill:none;fill-opacity:1;stroke:#4d8dc9;stroke-width:2.5;stroke-linecap:round;stroke-linejoin:round;stroke-dasharray:none;stroke-opacity:1"
       d="M 134.82254,39.824997 V 49.27779"
       id="path59046" /><path
       style="opacity:1;fill:none;fill-opacity:1;stroke:#4d8dc9;stroke-width:2.5;stroke-linecap:round;stroke-linejoin:round;stroke-dasharray:none;stroke-opacity:1"
       d="m 134.82254,35.109135 v -0.01643"
       id="path59048" /><ellipse
       style="opacity:1;fill:none;fill-opacity:1;stroke:#4d8dc9;stroke-width:2.5;stroke-linecap:round;stroke-linejoin:round;stroke-dasharray:none;stroke-opacity:1"
       id="ellipse59050"
       cx="143.35408"
       cy="44.463943"
       rx="4.8082633"
       ry="4.8467569" /><ellipse
       style="opacity:1;fill:none;fill-opacity:1;stroke:#4d8dc9;stroke-width:2.5;stroke-linecap:round;stroke-linejoin:round;stroke-dasharray:none;stroke-opacity:1"
       id="ellipse59052"
       cx="118.29769"
       cy="44.528042"
       rx="4.8082633"
       ry="4.6845236" /><path
       style="opacity:1;fill:none;fill-opacity:1;stroke:#4d8dc9;stroke-width:2.5;stroke-linecap:round;stroke-linejoin:round;stroke-dasharray:none;stroke-opacity:1"
       d="m 123.06449,44.842019 v 4.35832"
       id="path59054" /><path
       style="opacity:1;fill:none;fill-opacity:1;stroke:#4d8dc9;stroke-width:2.5;stroke-linecap:round;stroke-linejoin:round;stroke-dasharray:none;stroke-opacity:1"
       d="m 125.35592,39.779526 5.67646,-0.01874"
       id="path59056" /><path
       id="ellipse59104"
       style="opacity:1;fill:none;fill-opacity:1;stroke:#4d8dc9;stroke-width:2.5;stroke-linecap:round;stroke-linejoin:round;stroke-dasharray:none;stroke-opacity:1"
       d="m -197.17815,33.916793 v 9.452653 z m -4.78678,5.700427 a 4.8082633,4.8467569 0 0 1 4.80797,4.846733 4.8082633,4.8467569 0 0 1 -4.80797,4.846732 4.8082633,4.8467569 0 0 1 -4.8085,-4.846732 4.8082633,4.8467569 0 0 1 4.8085,-4.846733 z"
       transform="scale(-1,1)" /><path
       style="opacity:1;fill:none;fill-opacity:1;stroke:#4d8dc9;stroke-width:2.5;stroke-linecap:round;stroke-linejoin:round;stroke-dasharray:none;stroke-opacity:1"
       d="M 172.64126,33.951343 V 49.27779"
       id="path59108" /><path
       style="opacity:1;fill:none;fill-opacity:1;stroke:#4d8dc9;stroke-width:2.5;stroke-linecap:round;stroke-linejoin:round;stroke-dasharray:none;stroke-opacity:1"
       d="M 182.18583,33.951343 V 49.27779"
       id="path59110" /><path
       style="opacity:1;fill:none;fill-opacity:1;stroke:#4d8dc9;stroke-width:2.5;stroke-linecap:round;stroke-linejoin:round;stroke-dasharray:none;stroke-opacity:1"
       d="m 151.83523,49.27779 v -4.812746 c 0,0 0.2039,-4.71239 4.77008,-4.71239 4.56622,0 4.92416,4.344378 4.92416,4.344378 v 5.069824"
       id="path59112" /><path
       style="opacity:1;fill:none;fill-opacity:1;stroke:#4d8dc9;stroke-width:2.5;stroke-linecap:round;stroke-linejoin:round;stroke-dasharray:none;stroke-opacity:1"
       d="m 193.37591,39.740817 v 4.812746 c 0,0 0.2689,4.607925 -3.57795,4.724615 -3.96558,0.120292 -3.69122,-4.356603 -3.69122,-4.356603 v -5.069824"
       id="path59114" /><path
       style="opacity:1;fill:none;fill-opacity:1;stroke:#4d8dc9;stroke-width:2.5;stroke-linecap:round;stroke-linejoin:round;stroke-dasharray:none;stroke-opacity:1"
       d="m 182.13271,42.238186 h -9.4528"
       id="path59116" /></g><path
     id="path96895"
     clip-path="none"
     style="color:#000000;font-variation-settings:normal;display:inline;opacity:1;vector-effect:none;fill:#579cd3;fill-opacity:1;stroke-width:0.491203;stroke-linecap:butt;stroke-linejoin:miter;stroke-miterlimit:4;stroke-dasharray:none;stroke-dashoffset:0;stroke-opacity:1;-inkscape-stroke:none;stop-color:#000000;stop-opacity:1"
     d="m 5.753323,9.0140993 c -2.566171,0 -4.6627645,2.0960797 -4.6627645,4.6622477 0,2.566172 2.0965935,4.663798 4.6627645,4.663798 1.70345,0 3.1997805,-0.92449 4.0137086,-2.296501 l 2.2711794,0.926042 c -0.271008,0.876259 -0.417029,1.806885 -0.417029,2.77089 0,1.939313 0.590941,3.743603 1.60197,5.242057 l 1.096574,-1.169954 c -0.720546,-1.185608 -1.135332,-2.579427 -1.135332,-4.072103 0,-1.380952 0.358675,-2.674699 0.982369,-3.799768 -0.371457,-0.391837 -0.732139,-0.800719 -1.075386,-1.241268 -0.185182,0.290149 -0.354924,0.591208 -0.50798,0.901754 l -2.274796,-0.928109 c 0.07061,-0.3214 0.108004,-0.65494 0.108004,-0.996838 0,-2.566168 -2.0971097,-4.6622477 -4.663282,-4.6622477 z m 0,1.5626947 c 1.7212075,0 3.1000691,1.378349 3.1000691,3.099553 0,1.721208 -1.3788616,3.100069 -3.1000691,3.100069 -1.7212048,0 -3.1000692,-1.378861 -3.1000692,-3.100069 0,-1.721204 1.3788644,-3.099553 3.1000692,-3.099553 z m 23.079729,8.768974 c 0.0065,0.131581 0.01912,0.261569 0.01912,0.394808 0,4.335792 -3.49835,7.834664 -7.834147,7.834664 -1.483867,0 -2.869499,-0.41009 -4.050399,-1.122929 l -1.083655,1.155485 c 1.476792,0.967124 3.241134,1.530139 5.134054,1.530139 2.628133,0 5.006845,-1.086286 6.714319,-2.831868 l 0.84801,0.763777 c -0.362881,0.618868 -0.571542,1.338183 -0.571542,2.103748 0,2.299644 1.880462,4.17959 4.180107,4.17959 2.299644,0 4.18114,-1.879946 4.18114,-4.17959 0,-2.299646 -1.881496,-4.18114 -4.18114,-4.18114 -1.004805,0 -1.929203,0.359188 -2.652034,0.955497 l -0.858346,-0.774113 c 1.092521,-1.535382 1.737362,-3.41008 1.737362,-5.43326 0,-0.02548 -0.0019,-0.05053 -0.0021,-0.07597 -0.496773,-0.135365 -1.016921,-0.248246 -1.580782,-0.318843 z m -12.32948,3.912939 -5.522661,5.793445 c -0.445512,-0.251858 -0.958476,-0.395841 -1.5032674,-0.395841 -1.6905042,0 -3.0778485,1.387342 -3.0778485,3.077848 0,1.690504 1.3873443,3.077332 3.0778485,3.077332 1.6905054,0 3.0778484,-1.386828 3.0778484,-3.077332 0,-0.61542 -0.183803,-1.190554 -0.499194,-1.673283 l 5.510258,-5.780526 a 5.8776085,5.7956094 0 0 1 -1.062984,-1.021643 z m 15.685347,3.297474 c 1.454672,0 2.617411,1.162738 2.617411,2.617411 0,1.454669 -1.162739,2.616894 -2.617411,2.616894 -1.454671,0 -2.616894,-1.162225 -2.616894,-2.616894 0,-1.454673 1.162223,-2.617411 2.616894,-2.617411 z M 9.4776436,30.22004 c 0.8455334,0 1.5146364,0.668586 1.5146364,1.514119 0,0.845532 -0.669103,1.513603 -1.5146364,1.513603 -0.8455324,0 -1.5141196,-0.668071 -1.5141196,-1.513603 0,-0.845533 0.6685872,-1.514119 1.5141196,-1.514119 z" /><path
     id="path91788"
     clip-path="none"
     style="display:inline;opacity:1;fill:#4d8dc9;fill-opacity:1;stroke:#4d8dc9;stroke-width:0;stroke-linecap:round;stroke-linejoin:round;stroke-dasharray:none;stroke-opacity:1"
     d="m 20.968932,13.459823 a 6.1750617,6.1750617 0 0 0 -6.175333,6.174817 6.1750617,6.1750617 0 0 0 6.175333,6.175334 6.1750617,6.1750617 0 0 0 2.399854,-0.496611 l -2.479435,-4.064868 -1.292945,0.0016 v 1.570964 a 0.69996489,0.69996489 0 0 1 -0.700215,0.699698 0.69996489,0.69996489 0 0 1 -0.699699,-0.699698 v -6.24977 a 0.70003488,0.70003488 0 0 1 0.699699,-0.700732 h 2.846338 c 0,0 0.0097,-5.41e-4 0.02842,-5.41e-4 0.131063,0 0.691638,0.0178 1.272274,0.293522 0.663583,0.315116 1.386662,1.107341 1.389062,2.319239 0.0023,1.198985 -0.652399,2.006134 -1.275891,2.369881 -0.243381,0.141989 -0.485809,0.232668 -0.691431,0.290938 l 2.120801,3.477824 a 6.1750617,6.1750617 0 0 0 2.557985,-4.986752 6.1750617,6.1750617 0 0 0 -6.174818,-6.174817 z m -1.372526,3.81062 v 2.578654 l 2.23914,-0.0021 c 0.0057,-4.81e-4 0.310779,-0.02503 0.615984,-0.203089 0.308059,-0.179722 0.582859,-0.40495 0.581359,-1.158068 -0.0014,-0.740208 -0.266223,-0.904514 -0.590144,-1.058334 -0.32392,-0.153777 -0.673861,-0.157096 -0.673861,-0.157096 a 0.70003488,0.70003488 0 0 1 -0.01292,0 z" /><path
     id="path2"
     clip-path="none"
     style="color:#000000;font-variation-settings:normal;display:inline;opacity:1;vector-effect:none;fill:#4d8dc9;fill-opacity:1;stroke-width:0.491203;stroke-linecap:butt;stroke-linejoin:miter;stroke-miterlimit:4;stroke-dasharray:none;stroke-dashoffset:0;stroke-opacity:1;-inkscape-stroke:none;stop-color:#000000;stop-opacity:1"
     d="m 20.65629,0.18001293 c -1.61748,0 -2.94504,1.32755727 -2.94504,2.94503997 0,1.371615 0.954803,2.5347128 2.231388,2.8566732 l -0.121439,8.0212159 a 5.8776085,5.7956094 0 0 1 1.273307,-0.148829 5.8776085,5.7956094 0 0 1 0.201538,0.0047 L 21.41645,5.9693237 c 1.253328,-0.3381024 2.18488,-1.4887555 2.18488,-2.8437541 0,-1.6174826 -1.327557,-2.94555707 -2.94504,-2.94555667 z m 0,1.56372887 c 0.772514,0 1.381827,0.6087992 1.381827,1.3813111 0,0.7725119 -0.609313,1.3828613 -1.381827,1.3828613 -0.772511,0 -1.382345,-0.6103494 -1.382345,-1.3828613 0,-0.7725119 0.609834,-1.3813111 1.382345,-1.3813111 z M 35.109671,6.845756 c -1.650588,0 -3.006018,1.3549133 -3.006018,3.0055013 0,0.3456307 0.05935,0.6785777 0.168465,0.9885697 l -6.817672,4.924764 a 5.8776085,5.7956094 0 0 1 0.850078,1.204061 l 6.782531,-4.900476 c 0.535345,0.489237 1.246343,0.789099 2.022616,0.789099 1.650588,0 3.004468,-1.355433 3.004468,-3.0060177 0,-1.650588 -1.35388,-3.0055018 -3.004468,-3.0055013 z m 0,1.5637293 c 0.805615,0 1.441773,0.636154 1.441773,1.441772 0,0.8056157 -0.636158,1.4422887 -1.441773,1.4422887 -0.805616,0 -1.442289,-0.636673 -1.442289,-1.4422887 0,-0.805618 0.636673,-1.441772 1.442289,-1.441772 z m -12.563057,2.0587887 -0.0072,1.585433 c 1.332109,0.260828 2.541871,0.8575 3.537768,1.699121 l 1.303797,-0.920874 C 26.061183,11.6158 24.393691,10.771732 22.546649,10.468274 Z M 18.80834,10.60625 c -2.391411,0.578679 -4.428721,2.074827 -5.716963,4.09329 0.343247,0.440549 0.703929,0.849431 1.075386,1.241268 0.986684,-1.77986 2.642531,-3.13421 4.63486,-3.71812 z m 10.766785,5.250842 -1.300696,0.918807 c 0.32521,0.797891 0.513672,1.664641 0.558623,2.569869 0.563861,0.0706 1.084009,0.183478 1.580782,0.318843 -0.01086,-1.356 -0.308774,-2.645013 -0.838709,-3.807519 z" /></svg>
