<?xml version="1.0" encoding="UTF-8" standalone="no"?>
<!-- Created with Inkscape (http://www.inkscape.org/) -->

<svg
   width="1000"
   height="1000"
   viewBox="0 0 40 40"
   version="1.1"
   id="svg5"
   xml:space="preserve"
   sodipodi:docname="logo_carousel.svg"
   inkscape:version="1.4.1-rc (06eac75fbf, 2025-03-29)"
   xmlns:inkscape="http://www.inkscape.org/namespaces/inkscape"
   xmlns:sodipodi="http://sodipodi.sourceforge.net/DTD/sodipodi-0.dtd"
   xmlns="http://www.w3.org/2000/svg"
   xmlns:svg="http://www.w3.org/2000/svg"><sodipodi:namedview
     id="namedview1"
     pagecolor="#505050"
     bordercolor="#ffffff"
     borderopacity="1"
     inkscape:showpageshadow="0"
     inkscape:pageopacity="0"
     inkscape:pagecheckerboard="1"
     inkscape:deskcolor="#d1d1d1"
     inkscape:zoom="1.037069"
     inkscape:cx="772.36908"
     inkscape:cy="511.05569"
     inkscape:window-width="2560"
     inkscape:window-height="1403"
     inkscape:window-x="26"
     inkscape:window-y="23"
     inkscape:window-maximized="0"
     inkscape:current-layer="svg5"
     showgrid="false" /><defs
     id="defs2"><rect
       x="142.40157"
       y="139.97263"
       width="130.91628"
       height="135.09853"
       id="rect42303" /><clipPath
       clipPathUnits="userSpaceOnUse"
       id="clipPath65681"><g
         id="use65683"
         style="display:inline" /></clipPath><clipPath
       clipPathUnits="userSpaceOnUse"
       id="clipPath66439"><g
         id="use66441"
         style="display:inline" /></clipPath></defs><path
     id="path96895"
     clip-path="none"
     style="color:#000000;font-variation-settings:normal;display:inline;opacity:1;vector-effect:none;fill:#579cd3;fill-opacity:1;stroke-width:0.491203;stroke-linecap:butt;stroke-linejoin:miter;stroke-miterlimit:4;stroke-dasharray:none;stroke-dashoffset:0;stroke-opacity:1;-inkscape-stroke:none;stop-color:#000000;stop-opacity:1"
     d="m 5.3249956,10.635018 c -2.566171,0 -4.6627645,2.09608 -4.6627645,4.662248 0,2.566172 2.0965935,4.663798 4.6627645,4.663798 1.70345,0 3.1997805,-0.92449 4.0137086,-2.296501 l 2.2711788,0.926042 c -0.271008,0.876259 -0.417029,1.806885 -0.417029,2.77089 0,1.939313 0.590941,3.743603 1.60197,5.242057 l 1.096574,-1.169954 c -0.720546,-1.185608 -1.135332,-2.579427 -1.135332,-4.072103 0,-1.380952 0.358675,-2.674699 0.982369,-3.799768 -0.371457,-0.391837 -0.732139,-0.800719 -1.075386,-1.241268 -0.185182,0.290149 -0.354924,0.591208 -0.50798,0.901754 L 9.8802732,16.294104 c 0.07061,-0.3214 0.108004,-0.65494 0.108004,-0.996838 0,-2.566168 -2.0971093,-4.662248 -4.6632816,-4.662248 z m 0,1.562695 c 1.7212075,0 3.1000691,1.378349 3.1000691,3.099553 0,1.721208 -1.3788616,3.100069 -3.1000691,3.100069 -1.7212048,0 -3.1000692,-1.378861 -3.1000692,-3.100069 0,-1.721204 1.3788644,-3.099553 3.1000692,-3.099553 z m 23.0797284,8.768974 c 0.0065,0.131581 0.01912,0.261569 0.01912,0.394808 0,4.335792 -3.49835,7.834664 -7.834147,7.834664 -1.483867,0 -2.869499,-0.41009 -4.050399,-1.122929 l -1.083655,1.155485 c 1.476792,0.967124 3.241134,1.530139 5.134054,1.530139 2.628133,0 5.006845,-1.086286 6.714319,-2.831868 l 0.84801,0.763777 c -0.362881,0.618868 -0.571542,1.338183 -0.571542,2.103748 0,2.299644 1.880462,4.17959 4.180107,4.17959 2.299644,0 4.18114,-1.879946 4.18114,-4.17959 0,-2.299646 -1.881496,-4.18114 -4.18114,-4.18114 -1.004805,0 -1.929203,0.359188 -2.652034,0.955497 l -0.858346,-0.774113 c 1.092521,-1.535382 1.737362,-3.41008 1.737362,-5.43326 0,-0.02548 -0.0019,-0.05053 -0.0021,-0.07597 C 29.4887,21.15016 28.968552,21.037279 28.404691,20.966682 Z m -12.32948,3.912939 -5.522661,5.793445 C 10.107071,30.421213 9.5941072,30.27723 9.0493162,30.27723 c -1.6905042,0 -3.0778485,1.387342 -3.0778485,3.077848 0,1.690504 1.3873443,3.077332 3.0778485,3.077332 1.6905048,0 3.0778478,-1.386828 3.0778478,-3.077332 0,-0.61542 -0.183803,-1.190554 -0.499194,-1.673283 l 5.510258,-5.780526 A 5.8776085,5.7956094 0 0 1 16.075244,24.879626 Z M 31.760591,28.1771 c 1.454672,0 2.617411,1.162738 2.617411,2.617411 0,1.454669 -1.162739,2.616894 -2.617411,2.616894 -1.454671,0 -2.616894,-1.162225 -2.616894,-2.616894 0,-1.454673 1.162223,-2.617411 2.616894,-2.617411 z M 9.0493162,31.840959 c 0.845533,0 1.5146358,0.668586 1.5146358,1.514119 0,0.845532 -0.6691028,1.513603 -1.5146358,1.513603 -0.8455324,0 -1.5141196,-0.668071 -1.5141196,-1.513603 0,-0.845533 0.6685872,-1.514119 1.5141196,-1.514119 z" /><path
     id="path91788"
     clip-path="none"
     style="display:inline;opacity:1;fill:#4d8dc9;fill-opacity:1;stroke:#4d8dc9;stroke-width:0;stroke-linecap:round;stroke-linejoin:round;stroke-dasharray:none;stroke-opacity:1"
     d="m 20.540604,15.080742 a 6.1750617,6.1750617 0 0 0 -6.175333,6.174817 6.1750617,6.1750617 0 0 0 6.175333,6.175334 6.1750617,6.1750617 0 0 0 2.399854,-0.496611 l -2.479435,-4.064868 -1.292945,0.0016 v 1.570964 a 0.69996489,0.69996489 0 0 1 -0.700215,0.699698 0.69996489,0.69996489 0 0 1 -0.699699,-0.699698 v -6.24977 a 0.70003488,0.70003488 0 0 1 0.699699,-0.700732 h 2.846338 c 0,0 0.0097,-5.41e-4 0.02842,-5.41e-4 0.131063,0 0.691638,0.0178 1.272274,0.293522 0.663583,0.315116 1.386663,1.107341 1.389063,2.319239 0.0023,1.198985 -0.6524,2.006134 -1.275892,2.369881 -0.243381,0.141989 -0.485809,0.232668 -0.691431,0.290938 l 2.120802,3.477824 a 6.1750617,6.1750617 0 0 0 2.557984,-4.986752 6.1750617,6.1750617 0 0 0 -6.174818,-6.174817 z m -1.372526,3.81062 v 2.578654 l 2.23914,-0.0021 c 0.0057,-4.81e-4 0.310779,-0.02503 0.615984,-0.203089 0.30806,-0.179722 0.582859,-0.40495 0.581359,-1.158068 -0.0014,-0.740208 -0.266223,-0.904514 -0.590144,-1.058334 -0.32392,-0.153777 -0.673861,-0.157096 -0.673861,-0.157096 a 0.70003488,0.70003488 0 0 1 -0.01292,0 z" /><path
     id="path2"
     clip-path="none"
     style="color:#000000;font-variation-settings:normal;display:inline;opacity:1;vector-effect:none;fill:#4d8dc9;fill-opacity:1;stroke-width:0.491203;stroke-linecap:butt;stroke-linejoin:miter;stroke-miterlimit:4;stroke-dasharray:none;stroke-dashoffset:0;stroke-opacity:1;-inkscape-stroke:none;stop-color:#000000;stop-opacity:1"
     d="m 20.227962,1.800932 c -1.61748,0 -2.94504,1.3275572 -2.94504,2.9450399 0,1.371615 0.954803,2.5347128 2.231388,2.8566732 l -0.121439,8.0212159 a 5.8776085,5.7956094 0 0 1 1.273307,-0.148829 5.8776085,5.7956094 0 0 1 0.201538,0.0047 l 0.120406,-7.8894893 c 1.253328,-0.3381024 2.18488,-1.4887555 2.18488,-2.8437541 0,-1.6174826 -1.327557,-2.945557 -2.94504,-2.9455566 z m 0,1.5637288 c 0.772514,0 1.381827,0.6087992 1.381827,1.3813111 0,0.7725119 -0.609313,1.3828613 -1.381827,1.3828613 -0.772511,0 -1.382345,-0.6103494 -1.382345,-1.3828613 0,-0.7725119 0.609834,-1.3813111 1.382345,-1.3813111 z M 34.681343,8.466675 c -1.650588,0 -3.006018,1.3549133 -3.006018,3.005501 0,0.345631 0.05935,0.678578 0.168465,0.98857 l -6.817672,4.924764 a 5.8776085,5.7956094 0 0 1 0.850078,1.204061 l 6.782531,-4.900476 c 0.535345,0.489237 1.246343,0.789099 2.022616,0.789099 1.650588,0 3.004468,-1.355433 3.004468,-3.006018 0,-1.6505877 -1.35388,-3.0055015 -3.004468,-3.005501 z m 0,1.563729 c 0.805615,0 1.441773,0.636154 1.441773,1.441772 0,0.805616 -0.636158,1.442289 -1.441773,1.442289 -0.805616,0 -1.442289,-0.636673 -1.442289,-1.442289 0,-0.805618 0.636673,-1.441772 1.442289,-1.441772 z m -12.563057,2.058789 -0.0072,1.585433 c 1.332109,0.260828 2.541871,0.8575 3.537768,1.699121 l 1.303797,-0.920874 c -1.319796,-1.216154 -2.987288,-2.060222 -4.83433,-2.36368 z m -3.738274,0.137976 c -2.391411,0.578679 -4.428721,2.074827 -5.716963,4.09329 0.343247,0.440549 0.703929,0.849431 1.075386,1.241268 0.986684,-1.77986 2.642531,-3.13421 4.63486,-3.71812 z m 10.766785,5.250842 -1.300696,0.918807 c 0.32521,0.797891 0.513672,1.664641 0.558623,2.569869 0.563861,0.0706 1.084009,0.183478 1.580782,0.318843 -0.01086,-1.356 -0.308774,-2.645013 -0.838709,-3.807519 z" /></svg>
